<?xml version="1.0" encoding="UTF-8" standalone="no"?>
<!-- Created with Inkscape (http://www.inkscape.org/) -->

<svg
   xmlns:dc="http://purl.org/dc/elements/1.1/"
   xmlns:cc="http://creativecommons.org/ns#"
   xmlns:rdf="http://www.w3.org/1999/02/22-rdf-syntax-ns#"
   xmlns:svg="http://www.w3.org/2000/svg"
   xmlns="http://www.w3.org/2000/svg"
   xmlns:xlink="http://www.w3.org/1999/xlink"
   version="1.1"
   width="744.09448"
   height="1052.3622"
   id="svg2986">
  <title
     id="title3044">half note</title>
  <defs
     id="defs2988">
    <linearGradient
       id="linearGradient3013">
      <stop
         id="stop3015"
         style="stop-color:#000000;stop-opacity:0.8263889"
         offset="0" />
      <stop
         id="stop3017"
         style="stop-color:#000000;stop-opacity:1"
         offset="1" />
    </linearGradient>
    <linearGradient
       x1="382.33768"
       y1="489.13965"
       x2="490.53049"
       y2="333.89423"
       id="linearGradient3019"
       xlink:href="#linearGradient3013"
       gradientUnits="userSpaceOnUse"
       gradientTransform="matrix(2.0778635,0,0,2.0778635,-518.08353,-281.80071)" />
  </defs>
  <metadata
     id="metadata2991">
    <rdf:RDF>
      <cc:Work
         rdf:about="">
        <dc:format>image/svg+xml</dc:format>
        <dc:type
           rdf:resource="http://purl.org/dc/dcmitype/StillImage" />
        <dc:title>half note</dc:title>
        <cc:license
           rdf:resource="http://creativecommons.org/licenses/publicdomain/" />
        <dc:creator>
          <cc:Agent>
            <dc:title>Jaschon</dc:title>
          </cc:Agent>
        </dc:creator>
      </cc:Work>
      <cc:License
         rdf:about="http://creativecommons.org/licenses/publicdomain/">
        <cc:permits
           rdf:resource="http://creativecommons.org/ns#Reproduction" />
        <cc:permits
           rdf:resource="http://creativecommons.org/ns#Distribution" />
        <cc:permits
           rdf:resource="http://creativecommons.org/ns#DerivativeWorks" />
      </cc:License>
    </rdf:RDF>
  </metadata>
  <g
     id="layer1">
    <path
       d="m 407.6875,223.84375 c -7.24746,0.33178 -15.54416,4.85866 -15.75,12.15625 -0.45246,129.78922 -2.22524,259.57394 -4.4375,389.34375 -2.39027,17.09838 -7.7188,34.86744 -26.875,28.8125 C 321.42366,639.24126 275.40406,643.75124 239,664.5 c -37.0843,16.47148 -67.22037,55.2892 -65,97 0.69789,35.97432 35.1339,60.30149 68.4375,63.71875 35.81405,8.27488 72.77108,-2.12002 103.625,-20.6875 34.63317,-18.3788 71.62892,-47.09676 72.875,-89.90625 2.4559,-167.09439 4.74462,-319.48379 -0.5625,-483.28125 -0.073,-5.47124 -5.05059,-7.75805 -10.6875,-7.5 z M 308.40625,659.875 c 30.4783,-0.002 56.71303,13.00065 67.3125,36.5625 16.15158,35.90377 -10.09216,82.71245 -58.59375,104.53125 -48.50159,21.8188 -100.91092,10.40377 -117.0625,-25.5 -16.15158,-35.90377 10.09216,-82.71245 58.59375,-104.53125 16.67242,-7.50021 33.78517,-11.06164 49.75,-11.0625 z"
       id="path3"
       style="fill:url(#linearGradient3019);fill-opacity:1;fill-rule:evenodd;stroke:#000000;stroke-width:5.92410803;stroke-linecap:round;stroke-linejoin:round" />
  </g>
</svg>
