<?xml version="1.0" encoding="UTF-8" standalone="no"?>
<svg
   viewBox="0 0 384 512"
   version="1.1"
   id="svg4"
   sodipodi:docname="play-blue.svg"
   inkscape:export-filename="play-blue.svg"
   inkscape:export-xdpi="96"
   inkscape:export-ydpi="96"
   inkscape:version="1.2 (dc2aedaf03, 2022-05-15)"
   xmlns:inkscape="http://www.inkscape.org/namespaces/inkscape"
   xmlns:sodipodi="http://sodipodi.sourceforge.net/DTD/sodipodi-0.dtd"
   xmlns="http://www.w3.org/2000/svg"
   xmlns:svg="http://www.w3.org/2000/svg">
  <defs
     id="defs8" />
  <sodipodi:namedview
     id="namedview6"
     pagecolor="#ffffff"
     bordercolor="#000000"
     borderopacity="0.25"
     inkscape:showpageshadow="2"
     inkscape:pageopacity="0.0"
     inkscape:pagecheckerboard="0"
     inkscape:deskcolor="#d1d1d1"
     showgrid="false"
     inkscape:zoom="1.0253906"
     inkscape:cx="-9.2647619"
     inkscape:cy="256.48762"
     inkscape:window-width="1366"
     inkscape:window-height="705"
     inkscape:window-x="-8"
     inkscape:window-y="-8"
     inkscape:window-maximized="1"
     inkscape:current-layer="svg4" />
  <!--! Font Awesome Pro 6.1.1 by @fontawesome - https://fontawesome.com License - https://fontawesome.com/license (Commercial License) Copyright 2022 Fonticons, Inc. -->
  <path
     d="M361 215C375.3 223.8 384 239.3 384 256C384 272.7 375.3 288.2 361 296.1L73.03 472.1C58.21 482 39.66 482.4 24.52 473.9C9.377 465.4 0 449.4 0 432V80C0 62.64 9.377 46.63 24.52 38.13C39.66 29.64 58.21 29.99 73.03 39.04L361 215z"
     id="path2" />
  <path
     id="path217"
     style="fill:#00ffff;stroke-width:0.975238;stroke:#00ffff"
     d="M 47.771484 32.6875 C 24.716496 32.780269 3.8006338 50.257425 0.96289062 75.09375 C -0.31340795 86.264094 -0.31340795 425.7359 0.96289062 436.90625 C 3.3422357 457.73061 19.774686 475.34345 39.984375 478.72852 C 46.736094 479.8594 54.455251 479.15956 61.732422 476.75586 C 65.428201 475.53512 118.84388 443.4372 215.82031 384.16406 C 297.45723 334.26663 365.84872 292.16723 367.80078 290.60938 C 369.75286 289.05151 373.1497 285.08149 375.34961 281.78711 C 387.75657 263.20754 385.55017 239.76457 369.85156 223.36719 C 364.9146 218.21047 346.80382 206.86269 216.99023 127.58789 C 131.50996 75.386639 67.275474 36.763068 63.878906 35.523438 C 58.526647 33.570046 53.091866 32.666092 47.771484 32.6875 z " />
  <path
     id="path291"
     style="fill:#00a3cc;stroke:#00a3cc;stroke-width:0.975238;fill-opacity:1;stroke-opacity:1"
     d="M 49.560547 33.173828 C 45.335792 32.999705 41.043218 33.496457 36.605469 34.652344 C 28.786504 36.688926 21.757872 40.879947 15.994141 46.412109 C 15.854617 46.545114 15.690572 46.648329 15.552734 46.783203 C 15.494421 46.840263 15.444852 46.918914 15.386719 46.976562 C 8.7260162 53.589397 3.8817217 62.067152 1.9707031 71.46875 C 1.9638287 71.50257 1.9599409 72.046547 1.953125 72.09375 C 1.9484378 72.118058 1.9362733 72.143677 1.9316406 72.167969 C 1.5792355 74.015846 1.3255889 91.437369 1.1542969 123.18945 C 0.6757342 193.65072 0.6562494 317.88299 1.1132812 388.25195 C 1.1782942 399.79016 1.2663453 413.27846 1.3828125 419.65625 C 1.4063814 421.46913 1.4340267 422.40583 1.4589844 423.99219 C 1.5545491 428.02916 1.6456961 432.93493 1.7773438 435.15039 C 1.8249789 436.1331 1.8590397 439.56985 1.9101562 439.83203 C 2.8341629 444.57132 4.6491869 449.19623 7.0546875 453.54102 C 7.2010022 453.81163 7.385966 454.05651 7.5371094 454.32422 C 8.437596 455.88549 9.3603365 457.434 10.416016 458.90039 C 11.091381 459.84502 11.861541 460.70421 12.597656 461.59766 C 19.129878 469.55266 27.745398 475.64626 36.818359 477.78516 C 39.082203 478.31884 41.549367 478.6089 44.09375 478.70117 C 47.428166 478.97566 50.675169 478.79008 54.103516 478.00195 C 58.20327 477.2991 62.121548 476.12006 65.341797 474.46484 C 76.357672 468.80267 263.39994 355.18351 340.35742 307.40625 C 350.24282 301.26913 356.30132 297.36868 361.08984 294.11133 C 361.38308 293.92436 362.59957 293.17928 362.86719 293.00781 C 364.06466 292.24056 365.20455 291.41128 366.30078 290.53906 C 371.16759 286.86447 373.19344 284.4106 375.51758 280.78906 C 387.95747 261.40488 383.84034 235.30112 366.05859 220.81445 C 365.71283 220.53277 363.44196 219.09266 362.67383 218.55664 C 362.30479 218.29381 362.03474 218.0437 361.64844 217.77734 C 361.02313 217.3462 358.6406 215.8611 357.71875 215.25195 C 354.01552 212.8206 349.37677 209.83408 343.08008 205.84766 C 342.44639 205.44895 341.94052 205.12689 341.28125 204.71289 C 280.93401 166.57403 123.49378 70.384993 70.486328 39.689453 C 68.278808 38.411123 66.090337 37.376496 63.90625 36.474609 C 63.889739 36.466937 63.771655 36.397856 63.755859 36.390625 C 63.658722 36.346154 63.548813 36.328654 63.451172 36.285156 C 62.121109 35.751552 60.791543 35.289511 59.462891 34.894531 C 58.594434 34.635335 57.730232 34.388117 56.835938 34.195312 C 55.188196 33.818662 53.534425 33.558674 51.875 33.392578 C 51.859287 33.391319 51.843842 33.389913 51.828125 33.388672 C 51.072624 33.313957 50.319943 33.205127 49.560547 33.173828 z " />
  <path
     style="fill:#00a3cc;fill-opacity:1;stroke:#00a3cc;stroke-width:0.975238;stroke-opacity:1"
     d="m 39.667216,478.19928 c -0.12613,-0.12613 -1.577915,-0.46691 -3.22619,-0.7573 -1.648276,-0.29039 -5.1458,-1.71512 -7.772278,-3.16609 -8.533237,-4.71409 -11.964581,-7.93121 -20.6142539,-19.32732 -1.1120172,-1.4651 -4.1888507,-8.35655 -4.5718665,-10.24 C 3.4280888,444.44038 3.1410272,443.7821 2.8447128,443.24571 2.5483984,442.70933 2.1214496,438.97905 1.8959376,434.95619 1.3978321,426.0706 1.384011,86.206286 1.8813616,76.525824 2.3343058,67.709686 6.8640492,57.088942 13.226051,49.926294 17.943054,44.615666 28.08994,37.059048 30.50395,37.059048 c 0.744605,0 1.682971,-0.329143 2.085257,-0.731429 0.402285,-0.402286 1.133714,-0.786286 1.625396,-0.853333 0.491683,-0.06705 1.003683,-0.21034 1.137778,-0.318427 2.368903,-1.909442 17.716116,-1.927016 23.353259,-0.02674 7.562226,2.549219 18.763568,8.067437 21.081899,10.385768 0.713099,0.713099 1.923481,1.296543 2.68974,1.296543 0.766259,0 1.393197,0.395926 1.393197,0.879835 0,0.483909 1.206857,1.362924 2.681905,1.953367 1.475048,0.590442 3.998476,1.948644 5.607619,3.018226 1.609143,1.069582 4.132571,2.427784 5.607619,3.018226 1.475048,0.590443 2.681901,1.469458 2.681901,1.953367 0,0.48391 0.59114,0.879836 1.31364,0.879836 0.7225,0 2.22544,0.790803 3.33987,1.757341 1.11442,0.966537 3.69831,2.612251 5.74196,3.657143 2.04366,1.04489 4.30235,2.448373 5.01931,3.118849 0.71698,0.670476 1.93053,1.219048 2.69679,1.219048 0.76625,0 1.3932,0.430496 1.3932,0.956658 0,0.526161 1.09714,1.232023 2.43809,1.56858 1.34095,0.336558 2.4381,1.003204 2.4381,1.481438 0,0.478233 0.62694,0.869514 1.39319,0.869514 0.76627,0 1.99358,0.600387 2.72739,1.334192 0.73381,0.733806 2.30115,1.641094 3.483,2.016196 1.18184,0.375102 2.1488,1.091286 2.1488,1.591522 0,0.500235 0.62694,0.909519 1.39319,0.909519 0.76627,0 1.97312,0.573197 2.68191,1.273772 0.70879,0.700575 2.81459,2.126861 4.67956,3.169524 1.86497,1.042663 5.11253,3.102608 7.2168,4.577656 2.10427,1.475048 4.41839,2.681905 5.14248,2.681905 0.7241,0 1.31653,0.409284 1.31653,0.909519 0,0.500235 0.98743,1.217671 2.19429,1.594301 1.20686,0.376629 2.41371,0.954775 2.6819,1.284766 0.26819,0.329993 2.57219,1.687962 5.12,3.017712 2.54781,1.32975 4.63238,2.656238 4.63238,2.947748 0,0.29151 1.64572,1.39271 3.65715,2.44711 2.01143,1.0544 5.3687,3.12905 7.46061,4.61034 2.0919,1.4813 4.3959,2.69326 5.12,2.69326 0.72409,0 1.31653,0.4305 1.31653,0.95666 0,0.52616 1.09714,1.23203 2.4381,1.56858 1.34095,0.33656 2.43809,0.95563 2.43809,1.37572 0,0.42008 1.09714,1.03915 2.4381,1.37571 1.34095,0.33656 2.43809,1.04242 2.43809,1.56858 0,0.52616 0.62694,0.95666 1.3932,0.95666 0.76626,0 1.99165,0.54857 2.72309,1.21905 1.56643,1.43587 4.55332,3.39671 6.61133,4.34021 0.80457,0.36886 2.04277,1.24378 2.75157,1.94427 0.70878,0.70049 1.91564,1.27361 2.6819,1.27361 0.76626,0 1.3932,0.38768 1.3932,0.8615 0,0.47382 0.768,1.11936 1.70666,1.43454 1.95298,0.65575 4.91379,2.50728 6.85515,4.28682 0.73144,0.67048 1.80569,1.21905 2.38722,1.21905 0.58154,0 2.49577,1.09714 4.25385,2.43809 1.75808,1.34095 3.66464,2.4381 4.23681,2.4381 0.57217,0 1.04031,0.4305 1.04031,0.95666 0,0.52616 1.09714,1.23202 2.43809,1.56858 1.34095,0.33655 2.4381,1.0032 2.4381,1.48144 0,0.47822 0.62694,0.86951 1.39319,0.86951 0.76627,0 1.99165,0.54857 2.72309,1.21905 1.94136,1.77953 4.90217,3.63106 6.85515,4.28681 0.93866,0.31518 1.70666,0.93115 1.70666,1.36883 0,0.43767 0.98743,1.10393 2.19429,1.48055 1.20686,0.37664 2.41371,0.95889 2.6819,1.2939 0.96272,1.20259 8.35946,5.69066 10.49661,6.36897 1.19982,0.3808 2.18149,1.05048 2.18149,1.48815 0,0.43768 0.768,1.06128 1.70667,1.38578 0.93866,0.3245 3.02323,1.47793 4.63238,2.5632 1.60914,1.08526 3.69371,2.23869 4.63238,2.56319 0.93866,0.32451 1.70666,0.92649 1.70666,1.33776 0,0.41127 0.768,1.00563 1.70667,1.3208 1.78676,0.59994 5.25994,2.66772 6.09524,3.62883 0.26819,0.30859 2.02362,1.40573 3.90095,2.4381 1.87733,1.03237 3.63276,2.11847 3.90095,2.41357 1.01695,1.11897 10.79997,6.77775 11.71751,6.77775 0.52832,0 0.96562,0.32914 0.97177,0.73142 0.006,0.40229 1.76159,1.57004 3.90096,2.595 2.13937,1.02496 3.88976,2.23182 3.88976,2.6819 0,0.45009 0.37625,0.81834 0.8361,0.81834 0.45987,0 4.73873,2.55479 9.50858,5.67729 4.76986,3.12252 10.20847,6.52366 12.0858,7.5581 1.87733,1.03444 3.55962,2.20995 3.73841,2.61223 0.1788,0.40229 0.72636,0.73143 1.21679,0.73143 0.49044,0 3.02972,1.536 5.64283,3.41333 2.6131,1.87734 5.24727,3.41334 5.85368,3.41334 0.60641,0 1.10258,0.36975 1.10258,0.82166 0,0.45192 1.42628,1.60163 3.16952,2.55491 5.55499,3.03773 15.23585,16.58427 16.9421,23.70727 1.34364,5.6093 1.15323,20.5937 -0.3154,24.82021 -0.79737,2.29468 -1.61436,5.00024 -1.81557,6.01237 -0.20121,1.01213 -1.03774,2.58269 -1.85895,3.49013 -0.82122,0.90744 -1.49523,2.05419 -1.49779,2.54833 -0.0103,1.98635 -7.35241,8.70322 -14.9082,13.63865 -4.40288,2.87596 -8.5309,5.68014 -9.17339,6.2315 -0.64248,0.55137 -3.27562,2.17018 -5.85143,3.59736 -2.5758,1.42717 -4.9027,2.8906 -5.17089,3.25207 -0.2682,0.36146 -2.01559,1.50185 -3.8831,2.53422 -1.8675,1.03237 -3.98343,2.4256 -4.70203,3.09608 -0.71862,0.67048 -1.93351,1.21905 -2.69977,1.21905 -0.76626,0 -1.3932,0.33906 -1.3932,0.75347 0,0.41439 -1.64571,1.6202 -3.65714,2.67954 -2.01143,1.05935 -4.23706,2.47572 -4.94585,3.14749 -0.70879,0.67177 -1.91565,1.2214 -2.68191,1.2214 -0.76625,0 -1.3932,0.4305 -1.3932,0.95666 0,0.52616 -1.09714,1.23202 -2.43809,1.56858 -1.34095,0.33656 -2.4381,1.0032 -2.4381,1.48144 0,0.47823 -0.65828,0.86951 -1.46285,0.86951 -0.80457,0 -1.46286,0.4305 -1.46286,0.95666 0,0.52616 -1.09714,1.23202 -2.4381,1.56858 -1.34095,0.33656 -2.43809,0.95563 -2.43809,1.37571 0,0.42009 -1.09714,1.03916 -2.4381,1.37571 -1.34095,0.33657 -2.43809,1.04243 -2.43809,1.56859 0,0.52616 -0.65829,0.95666 -1.46286,0.95666 -0.80457,0 -1.46286,0.4305 -1.46286,0.95666 0,0.52616 -1.09714,1.23201 -2.43809,1.56858 -1.34095,0.33655 -2.4381,0.95563 -2.4381,1.37571 0,0.42008 -1.09714,1.03915 -2.43809,1.37571 -1.34095,0.33656 -2.4381,1.04242 -2.4381,1.56858 0,0.52616 -0.65828,0.95666 -1.46285,0.95666 -0.80457,0 -1.46286,0.4305 -1.46286,0.95666 0,0.52616 -1.09714,1.23202 -2.4381,1.56858 -1.34095,0.33656 -2.43809,1.0032 -2.43809,1.48144 0,0.47823 -0.59003,0.86951 -1.31117,0.86951 -0.72114,0 -2.58628,1.09979 -4.14476,2.44398 -1.55848,1.34418 -3.69084,2.71865 -4.73859,3.05438 -1.04774,0.33572 -2.50537,1.21078 -3.23918,1.94459 -0.73381,0.73381 -1.96113,1.33419 -2.72739,1.33419 -0.76626,0 -1.3932,0.38768 -1.3932,0.8615 0,0.47382 -0.768,1.127 -1.70666,1.4515 -0.93867,0.3245 -3.02324,1.47793 -4.63238,2.5632 -1.60915,1.08526 -3.69372,2.23869 -4.63239,2.56319 -0.93866,0.3245 -1.70666,0.97768 -1.70666,1.4515 0,0.47382 -0.62694,0.8615 -1.3932,0.8615 -0.76626,0 -1.99358,0.60038 -2.72739,1.33419 -0.73381,0.73381 -2.19144,1.60887 -3.23918,1.9446 -1.04775,0.33572 -3.18011,1.71019 -4.73859,3.05437 -1.55848,1.34419 -3.42362,2.44398 -4.14476,2.44398 -0.72114,0 -1.31117,0.4305 -1.31117,0.95666 0,0.52616 -1.09714,1.23202 -2.43809,1.56858 -1.34096,0.33656 -2.4381,1.0032 -2.4381,1.48144 0,0.47822 -0.62694,0.86951 -1.39319,0.86951 -0.76627,0 -1.97313,0.57313 -2.68191,1.27361 -0.70879,0.7005 -1.94699,1.58304 -2.75156,1.96122 -0.80458,0.37818 -2.77943,1.55565 -4.38858,2.6166 -1.60914,1.06095 -3.584,2.23841 -4.38857,2.61659 -0.80457,0.37819 -2.04277,1.26073 -2.75156,1.96122 -0.70879,0.70049 -1.91564,1.27362 -2.68191,1.27362 -0.76625,0 -1.39319,0.43885 -1.39319,0.97523 0,0.53639 -0.59244,0.97524 -1.31654,0.97524 -0.72409,0 -3.05121,1.20686 -5.17139,2.68191 -6.18388,4.30225 -7.55206,5.14272 -9.35969,5.74967 -0.93867,0.31518 -1.70667,0.91315 -1.70667,1.32882 0,0.41568 -1.09714,1.03114 -2.4381,1.36769 -1.34095,0.33657 -2.43809,1.04243 -2.43809,1.56859 0,0.52616 -0.59244,0.95666 -1.31653,0.95666 -0.7241,0 -3.13401,1.31657 -5.35537,2.92571 -2.22136,1.60914 -4.48149,2.92571 -5.02251,2.92571 -0.54103,0 -0.98369,0.39593 -0.98369,0.87983 0,0.48392 -1.20685,1.36293 -2.6819,1.95338 -1.47505,0.59044 -3.99848,1.94511 -5.60762,3.01037 -1.60914,1.06526 -3.584,2.23882 -4.38857,2.60789 -0.80457,0.36906 -1.68229,0.92246 -1.95048,1.22978 -0.26819,0.30732 -2.57219,1.64673 -5.12,2.97648 -2.54781,1.32975 -4.63238,2.70846 -4.63238,3.0638 0,0.35534 -1.09714,0.92144 -2.43809,1.25799 -1.34096,0.33657 -2.4381,1.04243 -2.4381,1.56859 0,0.52616 -0.62694,0.95666 -1.39319,0.95666 -0.76627,0 -1.97313,0.57312 -2.68191,1.27361 -0.70879,0.70049 -1.94699,1.58303 -2.75157,1.96122 -0.80457,0.37818 -2.77942,1.53051 -4.38857,2.56074 -1.60914,1.03023 -4.62219,2.80024 -6.69566,3.93336 -2.07346,1.13311 -4.40882,2.69908 -5.18966,3.47993 -0.78083,0.78084 -2.04665,1.41971 -2.81291,1.41971 -0.76625,0 -1.3932,0.39128 -1.3932,0.86951 0,0.47824 -1.09714,1.14488 -2.43809,1.48144 -1.34095,0.33656 -2.4381,1.04242 -2.4381,1.56858 0,0.52616 -0.62694,0.95666 -1.39319,0.95666 -0.76627,0 -1.99358,0.60038 -2.72739,1.33419 -0.73381,0.73381 -2.301154,1.64109 -3.482996,2.0162 -1.18184,0.3751 -2.148801,1.09128 -2.148801,1.59152 0,0.50023 -0.581037,0.90952 -1.291193,0.90952 -0.710156,0 -3.45161,1.536 -6.09212,3.41333 -2.64051,1.87733 -5.350901,3.41333 -6.023093,3.41333 -0.67219,0 -1.222165,0.39593 -1.222165,0.87983 0,0.48392 -1.206857,1.37921 -2.681905,1.98953 -3.883179,1.60673 -8.45488,4.14054 -9.03015,5.00485 -0.518808,0.77949 -9.778118,4.63366 -13.156517,5.47638 -2.011966,0.50187 -16.000809,1.04353 -16.408974,0.63536 z"
     id="path1664" />
  <path
     style="fill:#00a3cc;fill-opacity:1;stroke:#00a3cc;stroke-width:0.975238;stroke-opacity:1"
     d="M 34.608219,477.08768 C 26.840453,474.40165 21.247228,470.64587 14.882869,463.84234 6.6106431,454.99931 2.8011218,446.89068 1.8566425,436.11579 0.75198493,423.51355 0.80963994,83.976576 1.9180743,74.336453 5.046666,47.126896 33.455239,27.269562 58.579466,34.730655 c 9.670016,2.871687 26.255224,12.488237 118.426244,68.666725 8.5821,5.23081 17.0195,10.32799 18.74979,11.32707 3.35122,1.93501 26.53973,16.16856 42.69021,26.20409 5.36381,3.33293 11.06896,6.80092 12.6781,7.70662 1.60914,0.9057 7.09486,4.24409 12.19048,7.41863 5.09561,3.17454 11.8979,7.35029 15.11619,9.27943 3.21828,1.92914 7.69403,4.68637 9.9461,6.12715 2.25206,1.4408 8.73022,5.4722 14.3959,8.95868 5.66568,3.48647 12.04769,7.43619 14.18224,8.77714 2.13455,1.34095 8.38325,5.26198 13.886,8.71339 35.55149,22.29846 40.32795,26.02594 46.32016,36.14756 5.3444,9.02737 6.74397,24.84333 3.20559,36.22489 -3.98851,12.82946 -9.33792,18.14186 -33.73804,33.50464 -6.81531,4.29104 -13.55798,8.4668 -14.98372,9.27946 -2.3747,1.35355 -7.80766,4.69132 -16.64281,10.22461 -1.87733,1.17573 -14.38476,8.85145 -27.79428,17.05715 -13.40952,8.2057 -25.91695,15.89797 -27.79429,17.09393 -7.81404,4.97797 -127.73385,77.6493 -172.266994,104.39368 -9.194086,5.52151 -18.848943,11.11331 -21.455238,12.42622 -9.3377,4.70384 -22.255773,5.8783 -31.082879,2.82596 z"
     id="path1666" />
  <path
     style="fill:#00a3cc;fill-opacity:1;stroke:#00a3cc;stroke-width:0.975238;stroke-opacity:1"
     d="M 33.218062,476.86418 C 17.824982,471.32854 4.235971,454.80907 1.9257499,438.82371 0.60684376,429.69766 0.69222829,80.34186 2.0153581,72.186535 4.3865072,57.571572 14.441505,44.532921 28.821717,37.425835 c 7.487865,-3.700704 7.874995,-3.780114 18.426752,-3.779805 12.254468,3.58e-4 14.33747,0.682114 30.770579,10.071056 9.536646,5.448696 56.688482,33.56199 73.142852,43.609898 5.09562,3.111653 20.2362,12.310712 33.64572,20.442356 69.07396,41.88698 159.43843,97.87887 174.35134,108.03207 10.27693,6.99686 15.55173,12.69336 19.61341,21.18145 2.91366,6.08894 3.03334,6.83926 3.03334,19.01714 0,12.18849 -0.11818,12.92754 -3.0605,19.13747 -1.68327,3.55265 -4.70264,8.27703 -6.70971,10.49862 -3.46959,3.84041 -22.71121,17.16898 -38.50407,26.67156 -4.02286,2.42055 -10.82514,6.57112 -15.11619,9.22347 -20.28793,12.54024 -64.21295,39.5102 -71.19238,43.71211 -4.29105,2.58338 -24.91734,15.09672 -45.83619,27.80741 -48.41549,29.41815 -119.562341,72.3272 -129.70667,78.22678 -4.291048,2.49552 -10.417536,5.21842 -13.61442,6.0509 -7.994437,2.08176 -18.303551,1.88919 -24.847518,-0.46414 z"
     id="path1668" />
  <path
     style="fill:#00a3cc;fill-opacity:1;stroke:#00a3cc;stroke-width:0.975238;stroke-opacity:1"
     d="M 35.108571,477.92993 C 22.764928,474.16156 9.6010084,461.443 3.7309862,447.61392 L 1.4628571,442.27048 1.201593,259.48419 C 1.0287123,138.53296 1.2762278,74.859403 1.9332563,71.263238 4.41855,57.660288 15.400036,43.695456 28.779162,37.124092 34.782039,34.175686 36.72416,33.725677 45.040878,33.356088 57.786635,32.789675 61.689986,34.149602 83.825392,46.868615 129.52517,73.127725 317.68295,188.30168 355.40668,213.10724 c 12.53995,8.24575 18.57143,14.24275 23.1532,23.02082 3.22693,6.1824 3.24583,6.29811 3.24583,19.87194 0,13.58906 -0.0157,13.68453 -3.32532,20.28073 -4.05613,8.08387 -9.45413,13.1954 -24.52848,23.22673 -17.3768,11.5635 -102.45036,63.67011 -216.93096,132.8678 -65.018353,39.30028 -70.368789,42.38034 -77.390343,44.55078 -6.383154,1.97311 -19.577904,2.51328 -24.522036,1.00389 z"
     id="path1670" />
  <path
     style="fill:#00a3cc;fill-opacity:1;stroke:#00a3cc;stroke-width:0.975238;stroke-opacity:1"
     d="M 31.695238,476.9052 C 21.074174,472.68214 10.076381,461.47301 4.2349588,448.91725 L 0.9752381,441.91069 V 258.55001 C 0.9752381,127.98883 1.286845,73.70119 2.0573786,70.021336 4.8072669,56.888632 15.767971,43.384636 28.934957,36.907158 35.337393,33.75749 35.96622,33.645714 47.283254,33.645714 h 11.718651 l 8.509796,4.088527 C 82.473912,44.922827 194.70287,112.63223 307.2,182.34176 c 56.9519,35.29058 64.71183,41.10727 71.68,53.72984 2.88521,5.22646 2.92571,5.50233 2.92571,19.9284 0,14.50435 -0.026,14.67826 -3.06079,20.48 -6.01277,11.49484 -12.39404,16.12345 -76.90873,55.78524 -111.5728,68.59176 -225.962541,137.56969 -236.329709,142.5087 -7.025174,3.34685 -8.131864,3.57884 -18.207433,3.81677 -8.830792,0.20853 -11.589814,-0.0895 -15.60381,-1.68551 z"
     id="path1672" />
  <path
     style="fill:#00a3cc;fill-opacity:1;stroke:#00a3cc;stroke-width:0.975238;stroke-opacity:1"
     d="M 29.370619,475.89519 C 20.488038,471.69306 10.436945,461.30941 4.9530143,450.6697 L 0.73696129,442.48989 0.74410004,258.5478 C 0.74933609,123.42871 1.048721,73.341299 1.8720374,69.84199 2.4884816,67.221942 4.148311,62.613942 5.560547,59.60199 9.0021196,52.261965 20.945668,40.415055 28.769524,36.580805 c 5.293487,-2.594187 6.967311,-2.901094 17.554286,-3.218693 11.352928,-0.340576 11.899328,-0.261268 18.27355,2.652363 12.722991,5.815627 90.67918,52.583198 206.89995,124.123675 83.83681,51.60632 88.39073,54.5762 97.64306,63.67899 11.2726,11.09043 12.5619,14.14913 12.96949,30.76833 0.27854,11.35707 0.0505,13.93409 -1.6228,18.33784 -4.37912,11.52487 -11.3567,17.54455 -44.32351,38.23865 -51.54041,32.35322 -228.03799,139.58961 -261.070217,158.62104 -13.786024,7.94277 -17.425823,9.05907 -29.535034,9.05813 -9.058296,-7e-4 -10.526924,-0.26796 -16.18768,-2.94594 z"
     id="path1674" />
  <path
     style="fill:#00a3cc;fill-opacity:1;stroke:#00a3cc;stroke-width:0.975238;stroke-opacity:1"
     d="M 39.460002,478.82734 C 26.769571,477.47828 12.204295,465.53337 4.3276252,450.01546 L 0.48761905,442.45021 0.41257984,298.02511 C 0.37130825,218.5913 0.59073682,134.29029 0.90019889,110.68952 L 1.4628571,67.779048 4.6400479,61.070313 C 8.8060304,52.273715 20.653101,40.18847 28.894818,36.327923 c 5.087327,-2.382982 7.061728,-2.718341 17.698117,-3.006094 11.624694,-0.31449 12.156138,-0.237708 18.320344,2.646872 14.044983,6.572441 87.756761,50.849125 214.492431,128.839849 52.85259,32.52447 75.2497,46.71439 82.40762,52.2102 7.3312,5.62885 14.94377,13.87184 17.57609,19.0316 2.61157,5.11909 3.77202,16.84027 2.79401,28.22078 -1.2369,14.39315 -7.24859,21.83462 -29.51954,36.54026 -29.74544,19.6411 -260.423282,160.02338 -282.912193,172.17023 -10.61804,5.73508 -17.975738,7.15498 -30.291695,5.84572 z"
     id="path1676" />
  <path
     style="fill:#00a3cc;fill-opacity:1;stroke:#00a3cc;stroke-width:0.975238;stroke-opacity:1"
     d="M 37.107714,478.75259 C 25.266435,476.4311 11.732975,464.55258 4.0215342,449.71236 l -4.24119205,-8.16192 0.4438055,-186.39808 0.4438054,-186.398074 2.53341845,-5.36381 c 1.39338,-2.950095 3.4300874,-6.679983 4.5260165,-8.288639 3.944554,-5.790004 14.048205,-15.017007 19.924368,-18.195622 5.784723,-3.129152 6.443131,-3.254457 18.86136,-3.589598 l 12.867403,-0.347264 7.842942,3.996178 C 91.771653,49.473454 316.54168,186.15998 354.49905,211.66276 c 11.32303,7.60773 20.52481,16.45756 24.27349,23.34511 5.42379,9.9653 5.49837,31.3213 0.14626,41.88317 -6.21338,12.26154 -11.35668,15.79922 -116.09213,79.85091 -105.06498,64.25321 -186.037037,112.94093 -197.037311,118.47662 -8.204522,4.12879 -18.915939,5.4486 -28.681645,3.53402 z"
     id="path1678" />
  <path
     style="fill:#00a3cc;fill-opacity:1;stroke:#00a3cc;stroke-width:0.975238;stroke-opacity:1"
     d="M 35.808307,478.75259 C 23.818606,475.92936 10.940526,463.97421 3.3546527,448.62482 L -0.05176486,441.7322 0.21792709,255.24324 0.48761905,68.754286 3.522849,62.415238 c 4.0725768,-8.505536 9.856147,-15.484686 17.74089,-21.408285 8.86964,-6.663527 13.081798,-7.907189 27.247366,-8.044923 l 11.675485,-0.113523 8.672419,4.711878 C 102.71448,55.954653 310.24454,182.21728 351.20969,209.34435 c 14.50954,9.6082 24.72562,19.07474 28.08832,26.02752 4.83068,9.98801 4.90083,31.12816 0.13595,40.97108 -4.88177,10.0844 -11.91849,15.70703 -47.85301,38.23656 -60.96179,38.22064 -250.369079,152.87787 -263.917335,159.76169 -10.149369,5.15686 -21.823727,6.77356 -31.855308,4.41139 z"
     id="path1680" />
  <path
     style="fill:#00a3cc;fill-opacity:1;stroke:#00a3cc;stroke-width:0.975238;stroke-opacity:1"
     d="M 34.620952,478.51461 C 21.864387,474.27863 10.430672,463.44872 2.8205065,448.39353 L 0,442.81371 V 255.93291 69.052114 L 4.0876923,61.101295 C 8.832631,51.872091 18.97532,41.099495 26.94641,36.822948 37.074544,31.38913 55.892495,30.820077 65.489437,35.657409 93.27246,49.661421 333.3597,196.03787 360.21961,215.34857 c 9.95701,7.15851 17.61765,15.72877 20.2098,22.60953 4.01283,10.65187 3.41164,30.24089 -1.20589,39.29198 -6.08166,11.92102 -15.7456,18.47083 -131.51304,89.1339 -116.57891,71.15838 -178.020253,107.81106 -185.747078,110.80695 -6.281079,2.43535 -21.740839,3.18377 -27.34245,1.32368 z"
     id="path1682" />
  <path
     style="fill:#00a3cc;fill-opacity:1;stroke:#00a3cc;stroke-width:0.975238;stroke-opacity:1"
     d="M 35.108571,478.90322 C 23.663643,475.40007 10.83438,463.80221 4.130663,450.8987 L 0,442.94789 V 255.92383 68.899779 L 3.6394703,61.512747 C 8.5944144,51.455697 19.54249,40.258499 28.535588,36.050121 c 5.560546,-2.602094 7.928255,-3.099104 17.058384,-3.58076 7.306141,-0.385431 11.795682,-0.174819 14.442882,0.677542 2.112682,0.680254 11.960098,5.867622 21.883146,11.527484 47.70293,27.208578 230.51288,138.768513 270.14095,164.853763 12.24129,8.05785 23.93353,18.87185 27.0742,25.0406 5.13332,10.08258 5.51789,30.71301 0.76667,41.12879 -4.43531,9.72319 -11.1324,15.52918 -37.10563,32.16842 -40.01004,25.63165 -233.36072,143.12679 -266.043346,161.66895 -8.094893,4.59255 -15.672234,8.15592 -19.017143,8.94313 -5.97381,1.40592 -18.645156,1.64402 -22.62713,0.42518 z"
     id="path1684" />
  <path
     style="fill:#00a3cc;fill-opacity:1;stroke:#00a3cc;stroke-width:0.975238;stroke-opacity:1"
     d="M 31.970621,477.98771 C 21.887409,473.91338 12.237774,464.8234 4.9247913,452.51048 L 0.00141868,444.22095 7.0938819e-4,256.14261 0,68.064273 3.6564182,61.094993 C 8.952676,51.000114 18.924727,40.859966 27.935581,36.40656 34.748808,33.039281 35.72302,32.835436 47.058224,32.405328 l 11.943681,-0.453196 8.777143,4.626567 C 91.317871,48.986374 228.56511,131.81856 315.48952,186.07825 c 47.84969,29.86858 58.30528,37.97393 64.05761,49.65857 2.81132,5.71062 3.15703,7.39525 3.53295,17.21611 0.8768,22.90672 -4.15656,31.08933 -29.55627,48.04888 -35.3533,23.6056 -266.514324,163.9912 -286.016509,173.69966 -8.918397,4.43972 -9.206703,4.5093 -19.992381,4.82498 -9.020466,0.26403 -11.75196,-0.007 -15.544299,-1.53874 z"
     id="path1686" />
  <path
     style="fill:#00a3cc;fill-opacity:1;stroke:#00a3cc;stroke-width:0.975238;stroke-opacity:1"
     d="M 33.043293,478.52218 C 21.509292,474.23236 9.3154499,462.12961 1.9646775,447.67571 L -0.24613508,443.32857 -0.06550469,255.58688 0.11512578,67.845187 3.6689834,60.985451 C 8.4250965,51.805093 20.682963,39.40782 28.769524,35.599444 c 5.193049,-2.445673 7.226479,-2.806613 18.072364,-3.2079 12.13396,-0.448944 12.263616,-0.430617 18.218145,2.57522 C 94.49088,49.823409 333.07648,195.16605 358.88762,213.96196 c 7.24892,5.27874 15.2542,12.9133 18.54317,17.68447 4.13388,5.99687 5.83778,13.10504 5.83778,24.35357 0,22.74099 -5.26032,29.5666 -39.98476,51.88278 C 291.15215,341.38599 86.956934,464.9673 68.378449,474.25871 l -10.128216,5.06528 -10.839403,0.2552 c -7.265137,0.17105 -12.002795,-0.1775 -14.367537,-1.05701 z"
     id="path1688" />
  <path
     style="fill:#00a3cc;fill-opacity:1;stroke:#00a3cc;stroke-width:0.975238;stroke-opacity:1"
     d="M 28.52708,476.39345 C 20.168467,472.21181 10.025834,461.97523 3.7643714,451.40138 L -0.48761905,444.22095 -0.15632247,255.51238 0.1749741,66.80381 4.2087635,59.652234 C 9.3048695,50.617261 21.271538,38.910857 29.101243,35.301147 33.904328,33.086792 36.223599,32.704569 46.96514,32.357125 l 12.344186,-0.399284 7.950934,4.051201 c 26.181584,13.340178 243.7085,145.489538 284.66945,172.938998 13.2528,8.88119 24.63819,19.7718 28.15353,26.93007 2.58274,5.25921 2.69771,6.11674 2.69771,20.12189 0,13.88371 -0.13515,14.91703 -2.65427,20.2937 -5.78941,12.35653 -15.33642,19.11409 -103.15906,73.01796 -67.87011,41.65738 -170.16636,103.38365 -195.535239,117.98732 -20.845905,12 -22.298605,12.51816 -35.095392,12.51816 -10.589549,0 -11.201505,-0.11764 -17.809909,-3.42369 z"
     id="path1690" />
</svg>
