<?xml version="1.0" encoding="UTF-8" standalone="no"?>
<svg
   viewBox="0 0 448 512"
   version="1.1"
   id="svg12"
   sodipodi:docname="tag-solid.svg"
   inkscape:version="1.2 (dc2aedaf03, 2022-05-15)"
   xmlns:inkscape="http://www.inkscape.org/namespaces/inkscape"
   xmlns:sodipodi="http://sodipodi.sourceforge.net/DTD/sodipodi-0.dtd"
   xmlns="http://www.w3.org/2000/svg"
   xmlns:svg="http://www.w3.org/2000/svg">
  <defs
     id="defs16" />
  <sodipodi:namedview
     id="namedview14"
     pagecolor="#ffffff"
     bordercolor="#000000"
     borderopacity="0.25"
     inkscape:showpageshadow="2"
     inkscape:pageopacity="0.0"
     inkscape:pagecheckerboard="0"
     inkscape:deskcolor="#d1d1d1"
     showgrid="false"
     inkscape:zoom="1.0253906"
     inkscape:cx="224.30476"
     inkscape:cy="256.48762"
     inkscape:window-width="1366"
     inkscape:window-height="705"
     inkscape:window-x="-8"
     inkscape:window-y="-8"
     inkscape:window-maximized="1"
     inkscape:current-layer="svg12" />
  <!--! Font Awesome Pro 6.1.1 by @fontawesome - https://fontawesome.com License - https://fontawesome.com/license (Commercial License) Copyright 2022 Fonticons, Inc. -->
  <path
     d="m 389.45,32 h -149.5 c -17,0 -33.2,6.74 -45.2,18.75 l -176,175.95 c -25,25 -25,65.6 0,90.6 l 133.4,133.4 c 25,25 65.6,25 90.6,0 l 175.95,-176 c 12.007,-12 18.75,-28.2 18.75,-45.2 V 80 c 0,-26.51 -21.49,-48 -48,-48 z m -64,144 c -17.7,0 -32,-14.3 -32,-32 0,-17.7 14.3,-32 32,-32 17.67,0 32,14.3 32,32 0,17.7 -14.33,32 -32,32 z"
     id="path10" />
</svg>
